<?xml version="1.0" encoding="utf-8"?>
<!-- Generator: Adobe Illustrator 17.0.0, SVG Export Plug-In . SVG Version: 6.00 Build 0)  -->
<!DOCTYPE svg PUBLIC "-//W3C//DTD SVG 1.1//EN" "http://www.w3.org/Graphics/SVG/1.1/DTD/svg11.dtd">
<svg version="1.1" id="Layer_2" xmlns="http://www.w3.org/2000/svg" xmlns:xlink="http://www.w3.org/1999/xlink" x="0px" y="0px"
	 width="34px" height="25px" viewBox="0 0 34 25" enable-background="new 0 0 34 25" xml:space="preserve">
<g>
	<g>
		<polygon fill="#FFCA11" points="3.615,0.444 0,0.444 0,25 34,25 34,21.44 3.615,21.44 		"/>
	</g>
	<g>
		<g>
			<path fill="#FFCA11" d="M33.475,0.144c-0.417-0.267-0.978-0.152-1.249,0.262l-7.181,10.888L14.717,3.91l-9.2,10.751
				c-0.319,0.375-0.272,0.937,0.111,1.255c0.168,0.139,0.375,0.206,0.582,0.206c0.257,0,0.513-0.106,0.691-0.316l8.113-9.483
				l10.512,7.513l8.216-12.463C34.015,0.963,33.893,0.411,33.475,0.144z"/>
		</g>
	</g>
	<g>
		<path fill="#FFCA11" d="M31.827,13.643l-8.418,3.668l-7.055-5.676l-9.24,5.275c-0.431,0.246-0.578,0.791-0.327,1.216
			c0.25,0.424,0.802,0.57,1.236,0.323l8.156-4.658l6.951,5.589l9.432-4.114c0.456-0.198,0.662-0.722,0.459-1.173
			C32.816,13.647,32.284,13.442,31.827,13.643z"/>
	</g>
</g>
<rect fill="none" width="34" height="25"/>
</svg>
