<?xml version="1.0" encoding="utf-8"?>
<!-- Generator: Adobe Illustrator 17.0.0, SVG Export Plug-In . SVG Version: 6.00 Build 0)  -->
<!DOCTYPE svg PUBLIC "-//W3C//DTD SVG 1.1//EN" "http://www.w3.org/Graphics/SVG/1.1/DTD/svg11.dtd">
<svg version="1.1" id="Layer_1" xmlns="http://www.w3.org/2000/svg" xmlns:xlink="http://www.w3.org/1999/xlink" x="0px" y="0px"
	 width="26px" height="23px" viewBox="0 0 26 23" enable-background="new 0 0 26 23" xml:space="preserve">
<rect y="-0.001" fill="none" width="26" height="23"/>
<path fill="#2C8FE4" d="M26,18.307V-0.001H0v18.308h12.5v1.399l-4.317,2.391l0.484,0.875l4.333-2.4l4.333,2.4l0.484-0.875
	L13.5,19.706v-1.399H26z"/>
<polygon fill="#FFFFFF" points="12.537,12.283 9.577,8.155 7.596,11.995 4.731,6.215 2.859,13.124 3.824,13.386 5.006,9.021 
	7.578,14.21 9.716,10.065 12.913,14.523 15.863,4.625 14.904,4.34 "/>
<path fill="#FFFFFF" d="M19.731,5.769c-1.867,0-3.386,1.519-3.386,3.385s1.519,3.384,3.386,3.384c1.866,0,3.384-1.518,3.384-3.384
	S21.598,5.769,19.731,5.769z M19.731,11.537c-1.315,0-2.386-1.069-2.386-2.384c0-1.315,1.07-2.385,2.386-2.385
	c1.314,0,2.384,1.069,2.384,2.385C22.115,10.468,21.046,11.537,19.731,11.537z"/>
</svg>
