<?xml version="1.0" encoding="utf-8"?>
<!-- Generator: Adobe Illustrator 17.0.0, SVG Export Plug-In . SVG Version: 6.00 Build 0)  -->
<!DOCTYPE svg PUBLIC "-//W3C//DTD SVG 1.1//EN" "http://www.w3.org/Graphics/SVG/1.1/DTD/svg11.dtd">
<svg version="1.1" id="Layer_1" xmlns="http://www.w3.org/2000/svg" xmlns:xlink="http://www.w3.org/1999/xlink" x="0px" y="0px"
	 width="26px" height="23px" viewBox="0 0 26 23" enable-background="new 0 0 26 23" xml:space="preserve">
<path fill="#2C8FE4" d="M26,18.217V0H0v18.217h12.5v3.789H3.989V23h18.021v-0.995H13.5v-3.789H26z"/>
<path fill="#FFFFFF" d="M10.696,5.954c0-1.271,1.034-2.305,2.305-2.305c1.27,0,2.303,1.034,2.303,2.305v0.863h1V5.954
	c0-1.822-1.481-3.305-3.303-3.305c-1.822,0-3.305,1.482-3.305,3.305v2.089h-1.51v6.825h9.628V8.043h-7.119V5.954z M16.814,9.043
	v4.825H9.186V9.043H16.814z"/>
<rect fill="none" width="26" height="23"/>
</svg>
