<?xml version="1.0" encoding="utf-8"?>
<!-- Generator: Adobe Illustrator 17.0.0, SVG Export Plug-In . SVG Version: 6.00 Build 0)  -->
<!DOCTYPE svg PUBLIC "-//W3C//DTD SVG 1.1//EN" "http://www.w3.org/Graphics/SVG/1.1/DTD/svg11.dtd">
<svg version="1.1" id="Layer_1" xmlns="http://www.w3.org/2000/svg" xmlns:xlink="http://www.w3.org/1999/xlink" x="0px" y="0px"
	 width="26px" height="23px" viewBox="0 0 26 23" enable-background="new 0 0 26 23" xml:space="preserve">
<rect x="0.917" y="-0.001" fill="#2C8FE4" width="24.333" height="17.626"/>
<g>
	<rect y="-0.001" fill="none" width="26" height="23"/>
</g>
<polygon fill="#2C8FE4" points="25.935,18.216 25.935,-0.001 15.4,-0.001 15.4,0.999 24.935,0.999 24.935,17.216 12.522,17.216 
	1.065,17.216 1.065,0.999 10.525,0.999 10.525,-0.001 0.065,-0.001 0.065,18.216 12.5,18.216 12.5,21.999 4.036,21.999 
	4.036,22.999 21.964,22.999 21.964,21.999 13.5,21.999 13.5,18.216 "/>
<polygon fill="#FFFFFF" points="8.457,5.928 13,10.471 17.543,5.928 16.911,5.296 13.447,8.76 13.447,-0.001 12.553,-0.001 
	12.553,8.76 9.089,5.296 "/>
</svg>
