<?xml version="1.0" encoding="utf-8"?>
<!-- Generator: Adobe Illustrator 17.0.0, SVG Export Plug-In . SVG Version: 6.00 Build 0)  -->
<!DOCTYPE svg PUBLIC "-//W3C//DTD SVG 1.1//EN" "http://www.w3.org/Graphics/SVG/1.1/DTD/svg11.dtd">
<svg version="1.1" id="Layer_1" xmlns="http://www.w3.org/2000/svg" xmlns:xlink="http://www.w3.org/1999/xlink" x="0px" y="0px"
	 width="32.042px" height="23px" viewBox="0 0 32.042 23" enable-background="new 0 0 32.042 23" xml:space="preserve">
<g>
	<rect x="3.042" y="-0.001" fill="none" width="26" height="23"/>
</g>
<g>
	<rect x="2.951" y="-0.001" fill="none" width="26" height="23"/>
</g>
<path fill="#2C8FE4" d="M26.967,14.038l5.074-4.296L23.69,0.52l-5.075,4.295l0.851,0.939l-0.547,0.39
	c-0.062-0.052-0.128-0.103-0.2-0.153c-0.541-0.323-1.417-0.516-2.345-0.516c-0.472,0-1.385,0.093-2.19,0.175
	c-0.514,0.052-0.968,0.099-1.177,0.106c-0.151,0.005-0.27-0.011-0.364-0.029l0.826-0.912L8.393,0.52L0.041,9.743l5.075,4.295
	l1.266-1.398c0.364,0.595,0.927,1.512,1.442,2.341c-0.321,0.691-0.005,1.369,0.11,1.612c1.137,2.445,3.052,4.267,5.692,5.412
	c0.43,0.187,0.83,0.281,1.188,0.281c0.765,0,1.213-0.424,1.44-0.842c0.929-0.088,1.799-0.286,2.366-0.554
	c1.033-0.491,3.68-2.857,3.875-3.576c0.08-0.286,0.097-0.564,0.053-0.872l3.567-3.345L26.967,14.038z M14.813,21.286
	c-0.22,0-0.485-0.066-0.79-0.199c-2.409-1.045-4.153-2.699-5.189-4.93c-0.126-0.266-0.246-0.571-0.062-0.84
	c0.012-0.019,0.028-0.041,0.101-0.041c0.24,0,0.708,0.24,1.303,0.916c0.315,0.358,0.595,0.683,0.849,0.977
	c0.901,1.043,1.497,1.732,2.209,2.236c0.274,0.193,0.607,0.366,0.929,0.532c0.572,0.297,1.284,0.666,1.271,0.925
	C15.43,20.88,15.329,21.286,14.813,21.286z M22.117,15.475c-1.099-1.6-4.212-4.918-5.212-5.453l-0.106-0.057l-0.121-0.002
	c-0.011,0-0.021,0-0.031,0c-1.188,0-2.306,1.04-2.909,1.601c-0.128,0.119-0.228,0.215-0.293,0.262
	c-0.167,0.118-0.3,0.29-0.455,0.488c-0.374,0.48-0.589,0.678-0.849,0.602c-0.114-0.034-0.154-0.084-0.178-0.13
	c-0.098-0.183-0.042-0.524-0.006-0.64c0.002-0.007,0.272-0.721,0.895-1.439c0.387-0.448,0.615-0.642,0.835-0.829
	c0.169-0.144,0.328-0.279,0.525-0.492c0.462-0.499,1.577-1.207,2.004-1.207c0.253,0,0.664,0.154,1.026,0.289
	c0.468,0.176,0.871,0.331,1.214,0.277c0.56-0.083,0.965-0.468,1.082-1.033c0.051-0.239,0.045-0.516-0.028-0.762l0.633-0.45
	l5.302,5.855"/>
</svg>
