<?xml version="1.0" encoding="utf-8"?>
<!-- Generator: Adobe Illustrator 17.0.0, SVG Export Plug-In . SVG Version: 6.00 Build 0)  -->
<!DOCTYPE svg PUBLIC "-//W3C//DTD SVG 1.1//EN" "http://www.w3.org/Graphics/SVG/1.1/DTD/svg11.dtd">
<svg version="1.1" id="Layer_1" xmlns="http://www.w3.org/2000/svg" xmlns:xlink="http://www.w3.org/1999/xlink" x="0px" y="0px"
	 width="26px" height="23px" viewBox="0 0 26 23" enable-background="new 0 0 26 23" xml:space="preserve">
<rect y="-0.001" fill="#FFFFFF" width="26" height="23"/>
<path fill="#2C8FE4" d="M3.571,2.499V16.92H26V2.499H3.571z"/>
<path fill="#FFFFFF" d="M14.786,12.894c1.752,0,3.178-1.429,3.178-3.185s-1.426-3.184-3.178-3.184c-1.753,0-3.179,1.428-3.179,3.184
	S13.033,12.894,14.786,12.894z M14.786,7.525c1.201,0,2.178,0.979,2.178,2.184s-0.977,2.185-2.178,2.185
	c-1.202,0-2.179-0.98-2.179-2.185S13.584,7.525,14.786,7.525z"/>
<polygon fill="#2C8FE4" points="2.786,4.788 1.786,4.788 1.786,18.71 23.714,18.71 23.714,17.71 2.786,17.71 "/>
<polygon fill="#2C8FE4" points="1,6.578 0,6.578 0,20.499 21.929,20.499 21.929,19.499 1,19.499 "/>
<polygon fill="#FFFFFF" points="6.304,5.764 8.982,5.764 8.982,5.711 8.982,5.711 8.982,4.816 8.982,4.816 8.982,4.764 6.304,4.764 
	6.304,4.816 6.304,4.816 6.304,5.711 6.304,5.711 "/>
<polygon fill="#FFFFFF" points="23.268,5.711 23.268,5.711 23.268,4.816 23.268,4.816 23.268,4.764 20.589,4.764 20.589,5.764 
	23.268,5.764 "/>
<polygon fill="#FFFFFF" points="6.304,14.684 8.982,14.684 8.982,14.631 8.982,14.631 8.982,13.736 8.982,13.736 8.982,13.684 
	6.304,13.684 6.304,13.736 6.304,13.736 6.304,14.631 6.304,14.631 "/>
<polygon fill="#FFFFFF" points="23.268,14.631 23.268,14.631 23.268,13.736 23.268,13.736 23.268,13.684 20.589,13.684 
	20.589,14.684 23.268,14.684 "/>
</svg>
